<mxfile host="app.diagrams.net" agent="Mozilla/5.0 (Windows NT 10.0; Win64; x64; rv:130.0) Gecko/20100101 Firefox/130.0" version="24.7.15">
  <diagram name="Page-1" id="bUEUwU-Q62BYzUw0XERP">
    <mxGraphModel dx="1687" dy="2020" grid="1" gridSize="10" guides="1" tooltips="1" connect="1" arrows="1" fold="1" page="1" pageScale="1" pageWidth="850" pageHeight="1100" math="0" shadow="0">
      <root>
        <mxCell id="0" />
        <mxCell id="1" parent="0" />
        <mxCell id="_1SP2gPX3ro1V0lYQWk0-16" value="" style="swimlane;startSize=0;" parent="1" vertex="1">
          <mxGeometry x="210" y="-50" width="490" height="530" as="geometry" />
        </mxCell>
        <mxCell id="_1SP2gPX3ro1V0lYQWk0-1" value="internaute" style="shape=umlActor;verticalLabelPosition=bottom;verticalAlign=top;html=1;outlineConnect=0;fillColor=#e1d5e7;strokeColor=#9673a6;" parent="_1SP2gPX3ro1V0lYQWk0-16" vertex="1">
          <mxGeometry x="-80" y="190" width="50" height="90" as="geometry" />
        </mxCell>
        <mxCell id="_1SP2gPX3ro1V0lYQWk0-29" value="S&#39;inscrire" style="ellipse;whiteSpace=wrap;html=1;fillColor=#e1d5e7;strokeColor=#9673a6;" parent="_1SP2gPX3ro1V0lYQWk0-16" vertex="1">
          <mxGeometry x="340" y="360" width="140" height="70" as="geometry" />
        </mxCell>
        <mxCell id="_1SP2gPX3ro1V0lYQWk0-47" value="&amp;lt;&amp;lt;include&amp;gt;&amp;gt;" style="endArrow=open;endSize=12;dashed=1;html=1;rounded=0;exitX=1;exitY=0.5;exitDx=0;exitDy=0;" parent="_1SP2gPX3ro1V0lYQWk0-16" source="_1SP2gPX3ro1V0lYQWk0-20" target="_1SP2gPX3ro1V0lYQWk0-29" edge="1">
          <mxGeometry width="160" relative="1" as="geometry">
            <mxPoint x="245" y="51.89" as="sourcePoint" />
            <mxPoint x="464.57758505560196" y="158.11254095269726" as="targetPoint" />
          </mxGeometry>
        </mxCell>
        <mxCell id="_1SP2gPX3ro1V0lYQWk0-48" value="&amp;lt;&amp;lt;include&amp;gt;&amp;gt;" style="endArrow=open;endSize=12;dashed=1;html=1;rounded=0;exitX=0.954;exitY=0.374;exitDx=0;exitDy=0;exitPerimeter=0;" parent="_1SP2gPX3ro1V0lYQWk0-16" source="_1SP2gPX3ro1V0lYQWk0-19" target="_1SP2gPX3ro1V0lYQWk0-29" edge="1">
          <mxGeometry width="160" relative="1" as="geometry">
            <mxPoint x="180" y="113.5" as="sourcePoint" />
            <mxPoint x="400" y="220" as="targetPoint" />
          </mxGeometry>
        </mxCell>
        <mxCell id="SZk2A1mEkm47gknhFR_O-5" value="&lt;div&gt;Gérer le panier&lt;/div&gt;" style="ellipse;whiteSpace=wrap;html=1;fillColor=#dae8fc;strokeColor=#6c8ebf;" parent="_1SP2gPX3ro1V0lYQWk0-16" vertex="1">
          <mxGeometry x="80.5" y="110" width="140" height="70" as="geometry" />
        </mxCell>
        <mxCell id="SZk2A1mEkm47gknhFR_O-4" value="Supprimer dans panier" style="ellipse;whiteSpace=wrap;html=1;fillColor=#ffe6cc;strokeColor=#d79b00;" parent="_1SP2gPX3ro1V0lYQWk0-16" vertex="1">
          <mxGeometry x="310" y="40" width="140" height="70" as="geometry" />
        </mxCell>
        <mxCell id="SZk2A1mEkm47gknhFR_O-1" value="Créer un compte" style="ellipse;whiteSpace=wrap;html=1;fillColor=#dae8fc;strokeColor=#6c8ebf;" parent="_1SP2gPX3ro1V0lYQWk0-16" vertex="1">
          <mxGeometry x="80.5" y="10" width="140" height="70" as="geometry" />
        </mxCell>
        <mxCell id="_1SP2gPX3ro1V0lYQWk0-17" value="Consulter des produits/services" style="ellipse;whiteSpace=wrap;html=1;fillColor=#dae8fc;strokeColor=#6c8ebf;" parent="_1SP2gPX3ro1V0lYQWk0-16" vertex="1">
          <mxGeometry x="80.5" y="200" width="140" height="70" as="geometry" />
        </mxCell>
        <mxCell id="_1SP2gPX3ro1V0lYQWk0-19" value="Passer une commande" style="ellipse;whiteSpace=wrap;html=1;fillColor=#dae8fc;strokeColor=#6c8ebf;" parent="_1SP2gPX3ro1V0lYQWk0-16" vertex="1">
          <mxGeometry x="80.5" y="289.99999999999994" width="140" height="70" as="geometry" />
        </mxCell>
        <mxCell id="_1SP2gPX3ro1V0lYQWk0-20" value="Commenter et noter produit/service" style="ellipse;whiteSpace=wrap;html=1;fillColor=#dae8fc;strokeColor=#6c8ebf;" parent="_1SP2gPX3ro1V0lYQWk0-16" vertex="1">
          <mxGeometry x="80.5" y="369.99999999999994" width="140" height="70" as="geometry" />
        </mxCell>
        <mxCell id="_1SP2gPX3ro1V0lYQWk0-27" value="Contacter l&#39;admin" style="ellipse;whiteSpace=wrap;html=1;fillColor=#dae8fc;strokeColor=#6c8ebf;" parent="_1SP2gPX3ro1V0lYQWk0-16" vertex="1">
          <mxGeometry x="75" y="450" width="140" height="70" as="geometry" />
        </mxCell>
        <mxCell id="FpshHeZ8C7Dkaik3xRZZ-6" value="&amp;lt;&amp;lt;include&amp;gt;&amp;gt;" style="endArrow=open;endSize=12;dashed=1;html=1;rounded=0;exitX=1.015;exitY=0.425;exitDx=0;exitDy=0;exitPerimeter=0;entryX=0.537;entryY=0.998;entryDx=0;entryDy=0;entryPerimeter=0;" parent="_1SP2gPX3ro1V0lYQWk0-16" source="_1SP2gPX3ro1V0lYQWk0-27" target="_1SP2gPX3ro1V0lYQWk0-29" edge="1">
          <mxGeometry width="160" relative="1" as="geometry">
            <mxPoint x="220.5" y="695" as="sourcePoint" />
            <mxPoint x="440.5" y="280" as="targetPoint" />
          </mxGeometry>
        </mxCell>
        <mxCell id="eYcnwSPEYVFFNBRsw18R-63" value="Ajouter au panier" style="ellipse;whiteSpace=wrap;html=1;fillColor=#ffe6cc;strokeColor=#d79b00;" parent="_1SP2gPX3ro1V0lYQWk0-16" vertex="1">
          <mxGeometry x="310" y="130" width="140" height="70" as="geometry" />
        </mxCell>
        <mxCell id="eYcnwSPEYVFFNBRsw18R-64" value="&amp;lt;&amp;lt;extends&amp;gt;&amp;gt;" style="endArrow=none;endSize=7;endFill=0;html=1;rounded=0;exitX=0.924;exitY=0.843;exitDx=0;exitDy=0;exitPerimeter=0;dashed=1;startArrow=open;startFill=0;" parent="_1SP2gPX3ro1V0lYQWk0-16" target="eYcnwSPEYVFFNBRsw18R-63" edge="1">
          <mxGeometry width="160" relative="1" as="geometry">
            <mxPoint x="220.5" y="150" as="sourcePoint" />
            <mxPoint x="301.5" y="207" as="targetPoint" />
          </mxGeometry>
        </mxCell>
        <mxCell id="eYcnwSPEYVFFNBRsw18R-65" value="&amp;lt;&amp;lt;extends&amp;gt;&amp;gt;" style="endArrow=none;endSize=7;endFill=0;html=1;rounded=0;exitX=0.814;exitY=0.131;exitDx=0;exitDy=0;exitPerimeter=0;entryX=0.019;entryY=0.404;entryDx=0;entryDy=0;entryPerimeter=0;dashed=1;startArrow=open;startFill=0;" parent="_1SP2gPX3ro1V0lYQWk0-16" source="SZk2A1mEkm47gknhFR_O-5" target="SZk2A1mEkm47gknhFR_O-4" edge="1">
          <mxGeometry width="160" relative="1" as="geometry">
            <mxPoint x="190" y="110" as="sourcePoint" />
            <mxPoint x="253.5" y="134" as="targetPoint" />
          </mxGeometry>
        </mxCell>
        <mxCell id="eYcnwSPEYVFFNBRsw18R-67" value="Consulter par categorie" style="ellipse;whiteSpace=wrap;html=1;fillColor=#ffe6cc;strokeColor=#d79b00;" parent="_1SP2gPX3ro1V0lYQWk0-16" vertex="1">
          <mxGeometry x="310" y="220" width="140" height="70" as="geometry" />
        </mxCell>
        <mxCell id="eYcnwSPEYVFFNBRsw18R-68" value="&amp;lt;&amp;lt;extends&amp;gt;&amp;gt;" style="endArrow=none;endSize=7;endFill=0;html=1;rounded=0;dashed=1;startArrow=open;startFill=0;" parent="_1SP2gPX3ro1V0lYQWk0-16" source="_1SP2gPX3ro1V0lYQWk0-17" target="eYcnwSPEYVFFNBRsw18R-67" edge="1">
          <mxGeometry x="0.2372" y="5" width="160" relative="1" as="geometry">
            <mxPoint x="170" y="220" as="sourcePoint" />
            <mxPoint x="332.5" y="245" as="targetPoint" />
            <mxPoint as="offset" />
          </mxGeometry>
        </mxCell>
        <mxCell id="_1SP2gPX3ro1V0lYQWk0-7" value="" style="endArrow=block;endSize=16;endFill=0;html=1;rounded=0;" parent="_1SP2gPX3ro1V0lYQWk0-16" edge="1">
          <mxGeometry width="160" relative="1" as="geometry">
            <mxPoint x="-55.59" y="390" as="sourcePoint" />
            <mxPoint x="-55.59" y="320" as="targetPoint" />
          </mxGeometry>
        </mxCell>
        <mxCell id="SZk2A1mEkm47gknhFR_O-32" value="" style="endArrow=none;html=1;rounded=0;" parent="_1SP2gPX3ro1V0lYQWk0-16" source="_1SP2gPX3ro1V0lYQWk0-1" target="SZk2A1mEkm47gknhFR_O-5" edge="1">
          <mxGeometry relative="1" as="geometry">
            <mxPoint x="-90" y="230" as="sourcePoint" />
            <mxPoint x="78" y="118" as="targetPoint" />
          </mxGeometry>
        </mxCell>
        <mxCell id="SZk2A1mEkm47gknhFR_O-10" value="" style="endArrow=none;html=1;rounded=0;" parent="_1SP2gPX3ro1V0lYQWk0-16" source="_1SP2gPX3ro1V0lYQWk0-1" target="SZk2A1mEkm47gknhFR_O-1" edge="1">
          <mxGeometry relative="1" as="geometry">
            <mxPoint x="-70" y="200" as="sourcePoint" />
            <mxPoint x="63.31878123554907" y="135.77861966851103" as="targetPoint" />
          </mxGeometry>
        </mxCell>
        <mxCell id="SZk2A1mEkm47gknhFR_O-3" value="" style="endArrow=none;html=1;rounded=0;entryX=0;entryY=0.5;entryDx=0;entryDy=0;" parent="_1SP2gPX3ro1V0lYQWk0-16" source="_1SP2gPX3ro1V0lYQWk0-1" target="_1SP2gPX3ro1V0lYQWk0-17" edge="1">
          <mxGeometry relative="1" as="geometry">
            <mxPoint x="-70" y="250" as="sourcePoint" />
            <mxPoint x="78.81878123554907" y="329.998619668511" as="targetPoint" />
          </mxGeometry>
        </mxCell>
        <mxCell id="_1SP2gPX3ro1V0lYQWk0-41" value="" style="endArrow=none;html=1;rounded=0;entryX=0;entryY=0.5;entryDx=0;entryDy=0;" parent="_1SP2gPX3ro1V0lYQWk0-16" source="_1SP2gPX3ro1V0lYQWk0-1" target="_1SP2gPX3ro1V0lYQWk0-19" edge="1">
          <mxGeometry relative="1" as="geometry">
            <mxPoint x="-70" y="280" as="sourcePoint" />
            <mxPoint x="70.5" y="472.79999999999995" as="targetPoint" />
          </mxGeometry>
        </mxCell>
        <mxCell id="_1SP2gPX3ro1V0lYQWk0-42" value="" style="endArrow=none;html=1;rounded=0;entryX=-0.002;entryY=0.369;entryDx=0;entryDy=0;entryPerimeter=0;" parent="_1SP2gPX3ro1V0lYQWk0-16" source="_1SP2gPX3ro1V0lYQWk0-1" target="_1SP2gPX3ro1V0lYQWk0-20" edge="1">
          <mxGeometry relative="1" as="geometry">
            <mxPoint x="-70" y="290" as="sourcePoint" />
            <mxPoint x="70.5" y="552.8" as="targetPoint" />
          </mxGeometry>
        </mxCell>
        <mxCell id="_1SP2gPX3ro1V0lYQWk0-44" value="" style="endArrow=none;html=1;rounded=0;entryX=0.037;entryY=0.3;entryDx=0;entryDy=0;entryPerimeter=0;" parent="_1SP2gPX3ro1V0lYQWk0-16" source="_1SP2gPX3ro1V0lYQWk0-1" target="_1SP2gPX3ro1V0lYQWk0-27" edge="1">
          <mxGeometry relative="1" as="geometry">
            <mxPoint x="-70" y="330" as="sourcePoint" />
            <mxPoint x="70.5" y="712.8000000000002" as="targetPoint" />
          </mxGeometry>
        </mxCell>
        <mxCell id="FpshHeZ8C7Dkaik3xRZZ-1" value="Client" style="shape=umlActor;verticalLabelPosition=bottom;verticalAlign=top;html=1;outlineConnect=0;fillColor=#d5e8d4;strokeColor=#82b366;" parent="1" vertex="1">
          <mxGeometry x="130" y="360" width="50" height="90" as="geometry" />
        </mxCell>
      </root>
    </mxGraphModel>
  </diagram>
</mxfile>
